<svg id="Layer_1" data-name="Layer 1" xmlns="http://www.w3.org/2000/svg" xmlns:xlink="http://www.w3.org/1999/xlink" viewBox="0 0 1391.03 1075.74"><defs><style>.cls-1,.cls-11,.cls-34,.cls-35,.cls-4,.cls-5,.cls-6,.cls-7{fill:none;}.cls-2{clip-path:url(#clip-path);}.cls-3{fill:#ebebeb;}.cls-4,.cls-5{stroke:#fff;}.cls-11,.cls-4,.cls-5,.cls-6,.cls-7{stroke-linejoin:round;}.cls-4{stroke-width:0.53px;}.cls-11,.cls-5{stroke-width:1.07px;}.cls-35,.cls-6{stroke:#e41a1c;}.cls-6,.cls-7{stroke-width:3.2px;}.cls-34,.cls-7{stroke:#377eb8;}.cls-8{fill:#e41a1c;}.cls-8,.cls-9{opacity:0.15;}.cls-9{fill:#377eb8;}.cls-10{font-size:16px;}.cls-10,.cls-15{fill:#4d4d4d;}.cls-10,.cls-12,.cls-13,.cls-15,.cls-30,.cls-36{font-family:Helvetica-Bold, Helvetica;font-weight:700;}.cls-11{stroke:#333;}.cls-12{font-size:18px;}.cls-13{font-size:24px;}.cls-14{clip-path:url(#clip-path-2);}.cls-15,.cls-30{font-size:12px;}.cls-16{clip-path:url(#clip-path-3);}.cls-17{clip-path:url(#clip-path-4);}.cls-18{clip-path:url(#clip-path-5);}.cls-19{clip-path:url(#clip-path-6);}.cls-20{clip-path:url(#clip-path-7);}.cls-21{fill:#d9d9d9;}.cls-22{font-size:9px;font-family:Helvetica;}.cls-22,.cls-30{fill:#1a1a1a;}.cls-23{letter-spacing:-0.02em;}.cls-24{clip-path:url(#clip-path-8);}.cls-25{clip-path:url(#clip-path-9);}.cls-26{clip-path:url(#clip-path-10);}.cls-27{clip-path:url(#clip-path-11);}.cls-28{clip-path:url(#clip-path-12);}.cls-29{clip-path:url(#clip-path-13);}.cls-31{clip-path:url(#clip-path-14);}.cls-32{clip-path:url(#clip-path-15);}.cls-33{fill:#fff;}.cls-34,.cls-35{stroke-miterlimit:10;stroke-width:4px;}.cls-36{font-size:22px;}</style><clipPath id="clip-path"><rect class="cls-1" x="64.89" y="34.22" width="399.59" height="448.94"/></clipPath><clipPath id="clip-path-2"><rect class="cls-1" x="532.56" y="35.52" width="394.34" height="448.94"/></clipPath><clipPath id="clip-path-3"><rect class="cls-1" x="990.91" y="35.54" width="394.34" height="448.94"/></clipPath><clipPath id="clip-path-4"><rect class="cls-1" x="311.11" y="605.64" width="129.55" height="431.73"/></clipPath><clipPath id="clip-path-5"><rect class="cls-1" x="446.13" y="605.64" width="129.55" height="431.73"/></clipPath><clipPath id="clip-path-6"><rect class="cls-1" x="581.16" y="605.64" width="129.55" height="431.73"/></clipPath><clipPath id="clip-path-7"><rect class="cls-1" x="311.11" y="588.43" width="129.55" height="17.21"/></clipPath><clipPath id="clip-path-8"><rect class="cls-1" x="446.13" y="588.43" width="129.55" height="17.21"/></clipPath><clipPath id="clip-path-9"><rect class="cls-1" x="581.16" y="588.43" width="129.55" height="17.21"/></clipPath><clipPath id="clip-path-10"><rect class="cls-1" x="763.94" y="604.32" width="130.3" height="431.73"/></clipPath><clipPath id="clip-path-11"><rect class="cls-1" x="906.71" y="604.32" width="130.3" height="431.73"/></clipPath><clipPath id="clip-path-12"><rect class="cls-1" x="1042.49" y="604.32" width="130.3" height="431.73"/></clipPath><clipPath id="clip-path-13"><rect class="cls-1" x="763.94" y="587.11" width="130.3" height="17.21"/></clipPath><clipPath id="clip-path-14"><rect class="cls-1" x="906.71" y="587.11" width="130.3" height="17.21"/></clipPath><clipPath id="clip-path-15"><rect class="cls-1" x="1042.49" y="587.11" width="130.3" height="17.21"/></clipPath></defs><g class="cls-2"><rect class="cls-3" x="64.89" y="34.22" width="399.59" height="448.94"/><line class="cls-4" x1="64.89" y1="426.13" x2="464.48" y2="426.13"/><line class="cls-4" x1="64.89" y1="259.7" x2="464.48" y2="259.7"/><line class="cls-4" x1="64.89" y1="93.28" x2="464.48" y2="93.28"/><line class="cls-4" x1="97.02" y1="483.16" x2="97.02" y2="34.22"/><line class="cls-4" x1="236.74" y1="483.16" x2="236.74" y2="34.22"/><line class="cls-4" x1="376.46" y1="483.16" x2="376.46" y2="34.22"/><line class="cls-5" x1="64.89" y1="342.92" x2="464.48" y2="342.92"/><line class="cls-5" x1="64.89" y1="176.49" x2="464.48" y2="176.49"/><line class="cls-5" x1="166.88" y1="483.16" x2="166.88" y2="34.22"/><line class="cls-5" x1="306.6" y1="483.16" x2="306.6" y2="34.22"/><line class="cls-5" x1="446.32" y1="483.16" x2="446.32" y2="34.22"/><polyline class="cls-6" points="83.05 237.45 111 248.54 166.88 270.73 222.77 292.92 250.71 304.02 306.6 326.21 362.49 348.4 390.43 359.49 446.32 381.68"/><polyline class="cls-7" points="83.05 201.35 111 209.26 166.88 225.07 222.77 240.89 250.71 248.8 306.6 264.61 362.49 280.43 390.43 288.34 446.32 304.16"/><polygon class="cls-8" points="83.05 90.77 111 119.19 166.88 175.94 222.77 232.43 250.71 260.38 306.6 311.68 362.49 317.75 390.43 312.46 446.32 300.61 446.32 462.75 390.43 406.52 362.49 379.05 306.6 340.74 250.71 347.66 222.77 353.41 166.88 365.52 111 377.9 83.05 384.13 83.05 90.77"/><polygon class="cls-9" points="83.05 54.63 111 79.86 166.88 130.24 222.77 180.34 250.71 205.08 306.6 249.89 362.49 249.69 390.43 241.25 446.32 223.04 446.32 385.27 390.43 335.43 362.49 311.18 306.6 279.34 250.71 292.51 222.77 301.44 166.88 319.91 111 338.65 83.05 348.07 83.05 54.63"/></g><text class="cls-10" transform="translate(39.96 348.15)">0.5</text><text class="cls-10" transform="translate(39.96 181.72)">1.0</text><line class="cls-11" x1="61.66" y1="342.92" x2="64.4" y2="342.92"/><line class="cls-11" x1="61.66" y1="176.49" x2="64.4" y2="176.49"/><line class="cls-11" x1="166.39" y1="485.9" x2="166.39" y2="483.16"/><line class="cls-11" x1="306.11" y1="485.9" x2="306.11" y2="483.16"/><line class="cls-11" x1="445.83" y1="485.9" x2="445.83" y2="483.16"/><text class="cls-10" transform="translate(153.64 501.55)">0.90</text><text class="cls-10" transform="translate(293.35 501.55)">0.95</text><text class="cls-10" transform="translate(433.07 501.55)">1.00</text><text class="cls-12" transform="translate(26.63 352.96) rotate(-90)">Mean Amplitude (µV)</text><text class="cls-12" transform="translate(71.72 528.91)">Proportion of V2 Sentences Produced in SCT</text><text class="cls-13" transform="translate(197.29 24.55)">100–300 ms</text><g class="cls-14"><rect class="cls-3" x="532.56" y="35.52" width="394.34" height="448.94"/><line class="cls-4" x1="532.56" y1="469.63" x2="926.9" y2="469.63"/><line class="cls-4" x1="532.56" y1="358.55" x2="926.9" y2="358.55"/><line class="cls-4" x1="532.56" y1="247.46" x2="926.9" y2="247.46"/><line class="cls-4" x1="532.56" y1="136.38" x2="926.9" y2="136.38"/><line class="cls-4" x1="564.28" y1="484.46" x2="564.28" y2="35.52"/><line class="cls-4" x1="702.16" y1="484.46" x2="702.16" y2="35.52"/><line class="cls-4" x1="840.04" y1="484.46" x2="840.04" y2="35.52"/><line class="cls-5" x1="532.56" y1="414.09" x2="926.9" y2="414.09"/><line class="cls-5" x1="532.56" y1="303.01" x2="926.9" y2="303.01"/><line class="cls-5" x1="532.56" y1="191.92" x2="926.9" y2="191.92"/><line class="cls-5" x1="532.56" y1="80.84" x2="926.9" y2="80.84"/><line class="cls-5" x1="633.22" y1="484.46" x2="633.22" y2="35.52"/><line class="cls-5" x1="771.1" y1="484.46" x2="771.1" y2="35.52"/><line class="cls-5" x1="908.98" y1="484.46" x2="908.98" y2="35.52"/><polyline class="cls-6" points="550.49 351.19 578.07 341.27 633.22 321.43 688.37 301.58 715.95 291.66 771.1 271.82 826.25 251.98 853.83 242.06 908.98 222.22"/><polyline class="cls-7" points="550.49 168.82 578.07 171.21 633.22 175.99 688.37 180.76 715.95 183.15 771.1 187.93 826.25 192.71 853.83 195.1 908.98 199.88"/><polygon class="cls-8" points="550.49 238.32 578.07 241.76 633.22 248.57 688.37 255.22 715.95 258.37 771.1 261.63 826.25 228.84 853.83 206.15 908.98 159.97 908.98 284.47 853.83 277.97 826.25 275.12 771.1 282.02 715.95 324.96 688.37 347.94 633.22 394.28 578.07 440.78 550.49 464.05 550.49 238.32"/><polygon class="cls-9" points="550.49 55.93 578.07 71.67 633.22 103.1 688.37 134.37 715.95 149.82 771.1 177.62 826.25 169.53 853.83 159.16 908.98 137.61 908.98 262.15 853.83 231.04 826.25 215.9 771.1 198.25 715.95 216.49 688.37 227.16 633.22 248.87 578.07 270.74 550.49 281.7 550.49 55.93"/></g><text class="cls-15" transform="translate(502.87 417.32)">−1.5</text><text class="cls-15" transform="translate(502.87 306.24)">−1.0</text><text class="cls-15" transform="translate(502.87 195.15)">−0.5</text><text class="cls-15" transform="translate(508.12 84.07)">0.0</text><line class="cls-11" x1="529.82" y1="414.09" x2="532.56" y2="414.09"/><line class="cls-11" x1="529.82" y1="303.01" x2="532.56" y2="303.01"/><line class="cls-11" x1="529.82" y1="191.92" x2="532.56" y2="191.92"/><line class="cls-11" x1="529.82" y1="80.84" x2="532.56" y2="80.84"/><line class="cls-11" x1="633.22" y1="487.2" x2="633.22" y2="484.46"/><line class="cls-11" x1="771.1" y1="487.2" x2="771.1" y2="484.46"/><line class="cls-11" x1="908.98" y1="487.2" x2="908.98" y2="484.46"/><text class="cls-10" transform="translate(617.46 501.85)">0.90</text><text class="cls-10" transform="translate(755.34 501.85)">0.95</text><text class="cls-10" transform="translate(893.22 501.85)">1.00</text><text class="cls-13" transform="translate(662.34 24.55)">300–500 ms</text><g class="cls-16"><rect class="cls-3" x="990.91" y="35.54" width="394.34" height="448.94"/><line class="cls-4" x1="990.91" y1="451.27" x2="1385.25" y2="451.27"/><line class="cls-4" x1="990.91" y1="341.38" x2="1385.25" y2="341.38"/><line class="cls-4" x1="990.91" y1="231.5" x2="1385.25" y2="231.5"/><line class="cls-4" x1="990.91" y1="121.61" x2="1385.25" y2="121.61"/><line class="cls-4" x1="1022.63" y1="484.48" x2="1022.63" y2="35.54"/><line class="cls-4" x1="1160.51" y1="484.48" x2="1160.51" y2="35.54"/><line class="cls-4" x1="1298.39" y1="484.48" x2="1298.39" y2="35.54"/><line class="cls-5" x1="990.91" y1="396.33" x2="1385.25" y2="396.33"/><line class="cls-5" x1="990.91" y1="286.44" x2="1385.25" y2="286.44"/><line class="cls-5" x1="990.91" y1="176.55" x2="1385.25" y2="176.55"/><line class="cls-5" x1="990.91" y1="66.67" x2="1385.25" y2="66.67"/><line class="cls-5" x1="1091.57" y1="484.48" x2="1091.57" y2="35.54"/><line class="cls-5" x1="1229.45" y1="484.48" x2="1229.45" y2="35.54"/><line class="cls-5" x1="1367.33" y1="484.48" x2="1367.33" y2="35.54"/><polyline class="cls-6" points="1008.84 343.56 1036.42 326.55 1091.57 292.52 1146.72 258.5 1174.3 241.49 1229.45 207.46 1284.6 173.44 1312.18 156.43 1367.33 122.4"/><polyline class="cls-7" points="1008.84 300.98 1036.42 291.14 1091.57 271.46 1146.72 251.78 1174.3 241.94 1229.45 222.26 1284.6 202.57 1312.18 192.73 1367.33 173.05"/><polygon class="cls-8" points="1008.84 223.04 1036.42 220.29 1091.57 214.74 1146.72 209.02 1174.3 205.97 1229.45 196.7 1284.6 148.79 1312.18 118.11 1367.33 55.95 1367.33 188.85 1312.18 194.74 1284.6 198.09 1229.45 218.22 1174.3 277 1146.72 307.98 1091.57 370.31 1036.42 432.8 1008.84 464.07 1008.84 223.04"/><polygon class="cls-9" points="1008.84 180.44 1036.42 184.86 1091.57 193.65 1146.72 202.26 1174.3 206.38 1229.45 211.36 1284.6 177.86 1312.18 154.38 1367.33 106.57 1367.33 239.54 1312.18 231.09 1284.6 227.29 1229.45 233.15 1174.3 277.5 1146.72 301.29 1091.57 349.27 1036.42 397.41 1008.84 421.52 1008.84 180.44"/></g><text class="cls-15" transform="translate(961.22 399.56)">−1.0</text><text class="cls-15" transform="translate(961.22 289.67)">−0.5</text><text class="cls-15" transform="translate(966.47 179.78)">0.0</text><text class="cls-15" transform="translate(966.47 69.9)">0.5</text><line class="cls-11" x1="988.17" y1="396.33" x2="990.91" y2="396.33"/><line class="cls-11" x1="988.17" y1="286.44" x2="990.91" y2="286.44"/><line class="cls-11" x1="988.17" y1="176.55" x2="990.91" y2="176.55"/><line class="cls-11" x1="988.17" y1="66.67" x2="990.91" y2="66.67"/><line class="cls-11" x1="1091.57" y1="487.22" x2="1091.57" y2="484.48"/><line class="cls-11" x1="1229.45" y1="487.22" x2="1229.45" y2="484.48"/><line class="cls-11" x1="1367.33" y1="487.22" x2="1367.33" y2="484.48"/><text class="cls-10" transform="translate(1075.81 501.87)">0.90</text><text class="cls-10" transform="translate(1213.69 501.87)">0.95</text><text class="cls-10" transform="translate(1351.57 501.87)">1.00</text><text class="cls-13" transform="translate(1120.68 24.55)">500–700 ms</text><g class="cls-17"><rect class="cls-3" x="311.11" y="605.64" width="129.55" height="431.73"/><line class="cls-4" x1="311.11" y1="1014.73" x2="440.65" y2="1014.73"/><line class="cls-4" x1="311.11" y1="939.85" x2="440.65" y2="939.85"/><line class="cls-4" x1="311.11" y1="864.97" x2="440.65" y2="864.97"/><line class="cls-4" x1="311.11" y1="790.09" x2="440.65" y2="790.09"/><line class="cls-4" x1="311.11" y1="715.21" x2="440.65" y2="715.21"/><line class="cls-4" x1="311.11" y1="640.33" x2="440.65" y2="640.33"/><line class="cls-4" x1="321.53" y1="1037.37" x2="321.53" y2="605.64"/><line class="cls-4" x1="366.82" y1="1037.37" x2="366.82" y2="605.64"/><line class="cls-4" x1="412.12" y1="1037.37" x2="412.12" y2="605.64"/><line class="cls-5" x1="311.11" y1="977.29" x2="440.65" y2="977.29"/><line class="cls-5" x1="311.11" y1="902.41" x2="440.65" y2="902.41"/><line class="cls-5" x1="311.11" y1="827.53" x2="440.65" y2="827.53"/><line class="cls-5" x1="311.11" y1="752.65" x2="440.65" y2="752.65"/><line class="cls-5" x1="311.11" y1="677.77" x2="440.65" y2="677.77"/><line class="cls-5" x1="344.17" y1="1037.37" x2="344.17" y2="605.64"/><line class="cls-5" x1="389.47" y1="1037.37" x2="389.47" y2="605.64"/><line class="cls-5" x1="434.77" y1="1037.37" x2="434.77" y2="605.64"/><polyline class="cls-6" points="317 854.16 326.06 850.46 344.17 843.05 362.29 835.64 371.35 831.94 389.47 824.53 407.59 817.12 416.65 813.42 434.77 806.01"/><polyline class="cls-7" points="317 818.47 326.06 825.19 344.17 838.63 362.29 852.07 371.35 858.79 389.47 872.23 407.59 885.67 416.65 892.39 434.77 905.82"/><polygon class="cls-8" points="317 768.97 326.06 775.22 344.17 787.61 362.29 799.65 371.35 805.3 389.47 812.53 407.59 797.44 416.65 784.92 434.77 758.38 434.77 853.64 416.65 841.92 407.59 836.8 389.47 836.53 371.35 858.57 362.29 871.63 344.17 898.49 326.06 925.69 317 939.35 317 768.97"/><polygon class="cls-9" points="317 733.34 326.06 750.01 344.17 783.22 362.29 816.08 371.35 832.14 389.47 860.12 407.59 865.91 416.65 863.83 434.77 858.18 434.77 953.47 416.65 920.94 407.59 905.42 389.47 884.33 371.35 885.44 362.29 888.05 344.17 894.03 326.06 900.37 317 903.59 317 733.34"/></g><g class="cls-18"><rect class="cls-3" x="446.13" y="605.64" width="129.55" height="431.73"/><line class="cls-4" x1="446.13" y1="1014.73" x2="575.68" y2="1014.73"/><line class="cls-4" x1="446.13" y1="939.85" x2="575.68" y2="939.85"/><line class="cls-4" x1="446.13" y1="864.97" x2="575.68" y2="864.97"/><line class="cls-4" x1="446.13" y1="790.09" x2="575.68" y2="790.09"/><line class="cls-4" x1="446.13" y1="715.21" x2="575.68" y2="715.21"/><line class="cls-4" x1="446.13" y1="640.33" x2="575.68" y2="640.33"/><line class="cls-4" x1="456.55" y1="1037.37" x2="456.55" y2="605.64"/><line class="cls-4" x1="501.85" y1="1037.37" x2="501.85" y2="605.64"/><line class="cls-4" x1="547.14" y1="1037.37" x2="547.14" y2="605.64"/><line class="cls-5" x1="446.13" y1="977.29" x2="575.68" y2="977.29"/><line class="cls-5" x1="446.13" y1="902.41" x2="575.68" y2="902.41"/><line class="cls-5" x1="446.13" y1="827.53" x2="575.68" y2="827.53"/><line class="cls-5" x1="446.13" y1="752.65" x2="575.68" y2="752.65"/><line class="cls-5" x1="446.13" y1="677.77" x2="575.68" y2="677.77"/><line class="cls-5" x1="479.2" y1="1037.37" x2="479.2" y2="605.64"/><line class="cls-5" x1="524.49" y1="1037.37" x2="524.49" y2="605.64"/><line class="cls-5" x1="569.79" y1="1037.37" x2="569.79" y2="605.64"/><polyline class="cls-6" points="452.02 760.24 461.08 761.75 479.2 764.79 497.32 767.82 506.38 769.33 524.49 772.36 542.61 775.4 551.67 776.91 569.79 779.94"/><polyline class="cls-7" points="452.02 932.5 461.08 926.56 479.2 914.67 497.32 902.79 506.38 896.84 524.49 884.96 542.61 873.07 551.67 867.13 569.79 855.25"/><polygon class="cls-8" points="452.02 675.1 461.08 686.56 479.2 709.39 497.32 731.87 506.38 742.74 524.49 760.37 542.61 755.68 551.67 748.37 569.79 732.28 569.79 827.61 551.67 805.45 542.61 795.12 524.49 784.36 506.38 795.93 497.32 803.77 479.2 820.18 461.08 836.94 452.02 845.38 452.02 675.1"/><polygon class="cls-9" points="452.02 847.26 461.08 851.27 479.2 859.18 497.32 866.75 506.38 870.15 524.49 872.86 542.61 853.33 551.67 838.59 569.79 807.58 569.79 902.91 551.67 895.68 542.61 892.81 524.49 897.06 506.38 923.54 497.32 938.83 479.2 970.16 461.08 1001.85 452.02 1017.75 452.02 847.26"/></g><g class="cls-19"><rect class="cls-3" x="581.16" y="605.64" width="129.55" height="431.73"/><line class="cls-4" x1="581.16" y1="1014.73" x2="710.7" y2="1014.73"/><line class="cls-4" x1="581.16" y1="939.85" x2="710.7" y2="939.85"/><line class="cls-4" x1="581.16" y1="864.97" x2="710.7" y2="864.97"/><line class="cls-4" x1="581.16" y1="790.09" x2="710.7" y2="790.09"/><line class="cls-4" x1="581.16" y1="715.21" x2="710.7" y2="715.21"/><line class="cls-4" x1="581.16" y1="640.33" x2="710.7" y2="640.33"/><line class="cls-4" x1="591.58" y1="1037.37" x2="591.58" y2="605.64"/><line class="cls-4" x1="636.87" y1="1037.37" x2="636.87" y2="605.64"/><line class="cls-4" x1="682.17" y1="1037.37" x2="682.17" y2="605.64"/><line class="cls-5" x1="581.16" y1="977.29" x2="710.7" y2="977.29"/><line class="cls-5" x1="581.16" y1="902.41" x2="710.7" y2="902.41"/><line class="cls-5" x1="581.16" y1="827.53" x2="710.7" y2="827.53"/><line class="cls-5" x1="581.16" y1="752.65" x2="710.7" y2="752.65"/><line class="cls-5" x1="581.16" y1="677.77" x2="710.7" y2="677.77"/><line class="cls-5" x1="614.22" y1="1037.37" x2="614.22" y2="605.64"/><line class="cls-5" x1="659.52" y1="1037.37" x2="659.52" y2="605.64"/><line class="cls-5" x1="704.81" y1="1037.37" x2="704.81" y2="605.64"/><polyline class="cls-6" points="587.05 710.47 596.11 715.32 614.22 725.01 632.34 734.7 641.4 739.54 659.52 749.23 677.64 758.92 686.7 763.76 704.81 773.45"/><polyline class="cls-7" points="587.05 925.39 596.11 921.71 614.22 914.36 632.34 907 641.4 903.33 659.52 895.97 677.64 888.62 686.7 884.94 704.81 877.58"/><polygon class="cls-8" points="587.05 625.27 596.11 640.06 614.22 669.55 632.34 698.68 641.4 712.88 659.52 737.17 677.64 739.19 686.7 735.23 704.81 725.79 704.81 821.1 686.7 792.29 677.64 778.64 659.52 761.28 641.4 766.2 632.34 770.71 614.22 780.46 596.11 790.57 587.05 795.68 587.05 625.27"/><polygon class="cls-9" points="587.05 840.19 596.11 846.46 614.22 858.88 632.34 870.95 641.4 876.6 659.52 883.76 677.64 868.8 686.7 856.35 704.81 829.9 704.81 925.27 686.7 913.53 677.64 908.43 659.52 908.18 641.4 930.05 632.34 943.05 614.22 969.83 596.11 996.97 587.05 1010.59 587.05 840.19"/></g><g class="cls-20"><rect class="cls-21" x="311.11" y="588.43" width="129.55" height="17.21"/><text class="cls-22" transform="translate(361.72 600.27)">kans<tspan class="cls-23" x="19.01" y="0">k</tspan><tspan x="23.33" y="0">e</tspan></text></g><g class="cls-24"><rect class="cls-21" x="446.13" y="588.43" width="129.55" height="17.21"/><text class="cls-22" transform="translate(495.9 600.27)">hemma</text></g><g class="cls-25"><rect class="cls-21" x="581.16" y="588.43" width="129.55" height="17.21"/><text class="cls-22" transform="translate(637.43 600.27)">idag</text></g><line class="cls-11" x1="344.17" y1="1040.11" x2="344.17" y2="1037.37"/><line class="cls-11" x1="389.47" y1="1040.11" x2="389.47" y2="1037.37"/><line class="cls-11" x1="434.77" y1="1040.11" x2="434.77" y2="1037.37"/><text class="cls-10" transform="translate(328.42 1054.76)">0.90</text><text class="cls-10" transform="translate(373.71 1054.76)">0.95</text><text class="cls-10" transform="translate(419.01 1054.76)">1.00</text><line class="cls-11" x1="479.2" y1="1040.11" x2="479.2" y2="1037.37"/><line class="cls-11" x1="524.49" y1="1040.11" x2="524.49" y2="1037.37"/><line class="cls-11" x1="569.79" y1="1040.11" x2="569.79" y2="1037.37"/><text class="cls-10" transform="translate(463.44 1054.76)">0.90</text><text class="cls-10" transform="translate(508.74 1054.76)">0.95</text><text class="cls-10" transform="translate(554.03 1054.76)">1.00</text><line class="cls-11" x1="614.22" y1="1040.11" x2="614.22" y2="1037.37"/><line class="cls-11" x1="659.52" y1="1040.11" x2="659.52" y2="1037.37"/><line class="cls-11" x1="704.81" y1="1040.11" x2="704.81" y2="1037.37"/><text class="cls-10" transform="translate(598.47 1054.76)">0.90</text><text class="cls-10" transform="translate(643.76 1054.76)">0.95</text><text class="cls-10" transform="translate(689.06 1054.76)">1.00</text><text class="cls-15" transform="translate(286.67 980.52)">0.0</text><text class="cls-15" transform="translate(286.67 905.64)">0.5</text><text class="cls-15" transform="translate(286.67 830.76)">1.0</text><text class="cls-15" transform="translate(286.67 755.88)">1.5</text><text class="cls-15" transform="translate(286.67 681)">2.0</text><line class="cls-11" x1="308.37" y1="977.29" x2="311.11" y2="977.29"/><line class="cls-11" x1="308.37" y1="902.41" x2="311.11" y2="902.41"/><line class="cls-11" x1="308.37" y1="827.53" x2="311.11" y2="827.53"/><line class="cls-11" x1="308.37" y1="752.65" x2="311.11" y2="752.65"/><line class="cls-11" x1="308.37" y1="677.77" x2="311.11" y2="677.77"/><g class="cls-26"><rect class="cls-3" x="763.94" y="604.32" width="130.3" height="431.73"/><line class="cls-4" x1="763.94" y1="909.36" x2="894.23" y2="909.36"/><line class="cls-4" x1="763.94" y1="771.32" x2="894.23" y2="771.32"/><line class="cls-4" x1="763.94" y1="633.29" x2="894.23" y2="633.29"/><line class="cls-4" x1="774.42" y1="1036.05" x2="774.42" y2="604.32"/><line class="cls-4" x1="819.97" y1="1036.05" x2="819.97" y2="604.32"/><line class="cls-4" x1="865.53" y1="1036.05" x2="865.53" y2="604.32"/><line class="cls-5" x1="763.94" y1="978.38" x2="894.23" y2="978.38"/><line class="cls-5" x1="763.94" y1="840.34" x2="894.23" y2="840.34"/><line class="cls-5" x1="763.94" y1="702.3" x2="894.23" y2="702.3"/><line class="cls-5" x1="797.2" y1="1036.05" x2="797.2" y2="604.32"/><line class="cls-5" x1="842.75" y1="1036.05" x2="842.75" y2="604.32"/><line class="cls-5" x1="888.31" y1="1036.05" x2="888.31" y2="604.32"/><polyline class="cls-6" points="769.86 929.86 778.97 919.89 797.2 899.95 815.42 880.02 824.53 870.05 842.75 850.11 860.98 830.17 870.09 820.2 888.31 800.27"/><polyline class="cls-7" points="769.86 842.04 778.97 839.04 797.2 833.04 815.42 827.04 824.53 824.04 842.75 818.04 860.98 812.05 870.09 809.05 888.31 803.05"/><polygon class="cls-8" points="769.86 843.29 778.97 843.42 797.2 843.55 815.42 843.28 824.53 842.74 842.75 837.33 860.98 809.81 870.09 791 888.31 751.74 888.31 848.79 870.09 849.41 860.98 850.53 842.75 862.89 824.53 897.35 815.42 916.75 797.2 956.36 778.97 996.36 769.86 1016.43 769.86 843.29"/><polygon class="cls-9" points="769.86 755.46 778.97 762.54 797.2 776.59 815.42 790.23 824.53 796.62 842.75 805.01 860.98 791.53 870.09 779.74 888.31 754.47 888.31 851.62 870.09 838.35 860.98 832.56 842.75 831.07 824.53 851.46 815.42 863.85 797.2 889.49 778.97 915.53 769.86 928.62 769.86 755.46"/></g><g class="cls-27"><rect class="cls-3" x="906.71" y="604.32" width="130.3" height="431.73"/><line class="cls-4" x1="906.71" y1="909.36" x2="1037.01" y2="909.36"/><line class="cls-4" x1="906.71" y1="771.32" x2="1037.01" y2="771.32"/><line class="cls-4" x1="906.71" y1="633.29" x2="1037.01" y2="633.29"/><line class="cls-4" x1="917.19" y1="1036.05" x2="917.19" y2="604.32"/><line class="cls-4" x1="962.75" y1="1036.05" x2="962.75" y2="604.32"/><line class="cls-4" x1="1008.31" y1="1036.05" x2="1008.31" y2="604.32"/><line class="cls-5" x1="906.71" y1="978.38" x2="1037.01" y2="978.38"/><line class="cls-5" x1="906.71" y1="840.34" x2="1037.01" y2="840.34"/><line class="cls-5" x1="906.71" y1="702.3" x2="1037.01" y2="702.3"/><line class="cls-5" x1="939.97" y1="1036.05" x2="939.97" y2="604.32"/><line class="cls-5" x1="985.53" y1="1036.05" x2="985.53" y2="604.32"/><line class="cls-5" x1="1031.09" y1="1036.05" x2="1031.09" y2="604.32"/><polyline class="cls-6" points="912.64 770.43 921.75 771.13 939.97 772.53 958.19 773.93 967.3 774.64 985.53 776.04 1003.75 777.44 1012.86 778.14 1031.09 779.54"/><polyline class="cls-7" points="912.64 877.73 921.75 871.02 939.97 857.61 958.19 844.2 967.3 837.5 985.53 824.09 1003.75 810.68 1012.86 803.98 1031.09 790.57"/><polygon class="cls-8" points="912.64 683.85 921.75 694.65 939.97 716.12 958.19 737.2 967.3 747.32 985.53 763.22 1003.75 757.02 1012.86 748.88 1031.09 730.96 1031.09 828.11 1012.86 807.39 1003.75 797.85 985.53 788.85 967.3 801.95 958.19 810.67 939.97 828.95 921.75 847.62 912.64 857.02 912.64 683.85"/><polygon class="cls-9" points="912.64 790.98 921.75 794.38 939.97 801.04 958.19 807.3 967.3 810 985.53 811.05 1003.75 790.21 1012.86 774.7 1031.09 742 1031.09 839.13 1012.86 833.25 1003.75 831.15 985.53 837.13 967.3 864.99 958.19 881.11 939.97 914.19 921.75 947.67 912.64 964.47 912.64 790.98"/></g><g class="cls-28"><rect class="cls-3" x="1042.49" y="604.32" width="130.3" height="431.73"/><line class="cls-4" x1="1042.49" y1="909.36" x2="1172.78" y2="909.36"/><line class="cls-4" x1="1042.49" y1="771.32" x2="1172.78" y2="771.32"/><line class="cls-4" x1="1042.49" y1="633.29" x2="1172.78" y2="633.29"/><line class="cls-4" x1="1052.97" y1="1036.05" x2="1052.97" y2="604.32"/><line class="cls-4" x1="1098.52" y1="1036.05" x2="1098.52" y2="604.32"/><line class="cls-4" x1="1144.08" y1="1036.05" x2="1144.08" y2="604.32"/><line class="cls-5" x1="1042.49" y1="978.38" x2="1172.78" y2="978.38"/><line class="cls-5" x1="1042.49" y1="840.34" x2="1172.78" y2="840.34"/><line class="cls-5" x1="1042.49" y1="702.3" x2="1172.78" y2="702.3"/><line class="cls-5" x1="1075.74" y1="1036.05" x2="1075.74" y2="604.32"/><line class="cls-5" x1="1121.3" y1="1036.05" x2="1121.3" y2="604.32"/><line class="cls-5" x1="1166.86" y1="1036.05" x2="1166.86" y2="604.32"/><polyline class="cls-6" points="1048.41 710.48 1057.52 714.06 1075.74 721.21 1093.97 728.35 1103.08 731.93 1121.3 739.08 1139.53 746.23 1148.64 749.8 1166.86 756.95"/><polyline class="cls-7" points="1048.41 837.7 1057.52 833.06 1075.74 823.79 1093.97 814.52 1103.08 809.88 1121.3 800.61 1139.53 791.34 1148.64 786.7 1166.86 777.43"/><polygon class="cls-8" points="1048.41 623.95 1057.52 637.61 1075.74 664.82 1093.97 691.63 1103.08 704.62 1121.3 726.25 1139.53 725.81 1148.64 720.56 1166.86 708.4 1166.86 805.5 1148.64 779.05 1139.53 766.64 1121.3 751.91 1103.08 759.24 1093.97 765.08 1075.74 777.59 1057.52 790.5 1048.41 797.02 1048.41 623.95"/><polygon class="cls-9" points="1048.41 751.11 1057.52 756.56 1075.74 767.34 1093.97 777.7 1103.08 782.45 1121.3 787.5 1139.53 770.71 1148.64 757.29 1166.86 728.75 1166.86 826.11 1148.64 816.11 1139.53 811.97 1121.3 813.72 1103.08 837.31 1093.97 851.33 1075.74 880.24 1057.52 909.56 1048.41 924.29 1048.41 751.11"/></g><g class="cls-29"><rect class="cls-21" x="763.94" y="587.11" width="130.3" height="17.21"/><text class="cls-30" transform="translate(814.92 598.95)">kans<tspan class="cls-23" x="27.35" y="0">k</tspan><tspan x="33.79" y="0">e</tspan></text></g><g class="cls-31"><rect class="cls-21" x="906.71" y="587.11" width="130.3" height="17.21"/><text class="cls-22" transform="translate(956.86 598.95)">hemma</text></g><g class="cls-32"><rect class="cls-21" x="1042.49" y="587.11" width="130.3" height="17.21"/><text class="cls-22" transform="translate(1099.13 598.95)">idag</text></g><line class="cls-11" x1="804.2" y1="1038.79" x2="804.2" y2="1036.05"/><line class="cls-11" x1="849.75" y1="1038.79" x2="849.75" y2="1036.05"/><line class="cls-11" x1="895.31" y1="1038.79" x2="895.31" y2="1036.05"/><text class="cls-10" transform="translate(788.44 1053.44)">0.90</text><text class="cls-10" transform="translate(834 1053.44)">0.95</text><text class="cls-10" transform="translate(879.55 1053.44)">1.00</text><line class="cls-11" x1="939.97" y1="1038.79" x2="939.97" y2="1036.05"/><line class="cls-11" x1="985.53" y1="1038.79" x2="985.53" y2="1036.05"/><line class="cls-11" x1="1031.09" y1="1038.79" x2="1031.09" y2="1036.05"/><text class="cls-10" transform="translate(924.21 1053.44)">0.90</text><text class="cls-10" transform="translate(969.77 1053.44)">0.95</text><text class="cls-10" transform="translate(1015.33 1053.44)">1.00</text><line class="cls-11" x1="1075.74" y1="1038.79" x2="1075.74" y2="1036.05"/><line class="cls-11" x1="1121.3" y1="1038.79" x2="1121.3" y2="1036.05"/><line class="cls-11" x1="1166.86" y1="1038.79" x2="1166.86" y2="1036.05"/><text class="cls-10" transform="translate(1059.99 1053.44)">0.90</text><text class="cls-10" transform="translate(1105.55 1053.44)">0.95</text><text class="cls-10" transform="translate(1151.1 1053.44)">1.00</text><text class="cls-15" transform="translate(748.75 981.61)">−2</text><text class="cls-15" transform="translate(748.75 843.58)">−1</text><text class="cls-15" transform="translate(754 705.54)">0</text><line class="cls-11" x1="761.2" y1="978.38" x2="763.94" y2="978.38"/><line class="cls-11" x1="761.2" y1="840.34" x2="763.94" y2="840.34"/><line class="cls-11" x1="761.2" y1="702.3" x2="763.94" y2="702.3"/><text class="cls-13" transform="translate(911.46 577.46)">900–1000 ms</text><text class="cls-13" transform="translate(459.74 577.46)">700–900 ms</text><rect class="cls-33" x="313.73" y="67.98" width="120.95" height="64.67"/><line class="cls-34" x1="324.34" y1="85.62" x2="364.44" y2="85.62"/><line class="cls-35" x1="324.34" y1="113.43" x2="364.44" y2="113.43"/><text class="cls-36" transform="translate(383.07 94.58)">V2</text><text class="cls-36" transform="translate(383.07 122.73)">V3</text></svg>